<?xml version="1.0" encoding="UTF-8" standalone="no"?>
<svg
   xmlns:dc="http://purl.org/dc/elements/1.1/"
   xmlns:cc="http://creativecommons.org/ns#"
   xmlns:rdf="http://www.w3.org/1999/02/22-rdf-syntax-ns#"
   xmlns:svg="http://www.w3.org/2000/svg"
   xmlns="http://www.w3.org/2000/svg"
   viewBox="0 0 187.66667 188.09332"
   height="188.09332"
   width="187.66667"
   xml:space="preserve"
   id="svg2"
   version="1.1"><metadata
     id="metadata8"><rdf:RDF><cc:Work
         rdf:about=""><dc:format>image/svg+xml</dc:format><dc:type
           rdf:resource="http://purl.org/dc/dcmitype/StillImage" /></cc:Work></rdf:RDF></metadata><defs
     id="defs6" /><g
     transform="matrix(1.3333333,0,0,-1.3333333,0,188.09333)"
     id="g10"><g
       transform="scale(0.1)"
       id="g12"><path
         id="path14"
         style="fill:#d81b35;fill-opacity:1;fill-rule:nonzero;stroke:none"
         d="m 24.957,1403.38 c 13.5977,8.1 30.1993,6.6 45.2969,7.3 427.1011,-0.6 854.2031,0.2 1281.2061,-0.4 32.29,3.4 58.8,-28.3 55.8,-59.3 0,-430.5 0,-861.003 -0.11,-1291.4995 2.81,-30.6992 -23.4,-62.21097 -55.49,-58.808625 C 920.953,0.28125 490.156,0.570313 59.4531,0.46875 25.6563,-4.21875 -4.04688,26.2813 0.453125,59.8789 0.550781,490.672 0.355469,921.578 0.550781,1352.38 c -1.296875,19.8 6.707029,40.6 24.406219,51 v 0" /><path
         id="path16"
         style="fill:#ffffff;fill-opacity:1;fill-rule:nonzero;stroke:none"
         d="m 664.652,1130.08 c 0.305,11.5 0.602,23 1,34.5 119,7.1 240.809,-29.4 332.008,-107.1 102.5,-84.699 161.59,-215.8 164.49,-347.996 -0.4,-139.808 -64.49,-279.41 -175.896,-365.113 -89.793,-71.891 -206.797,-104.699 -320.899,-97.902 -0.5,97.5 0.196,195.004 -0.398,292.402 90,3.203 180.703,37.602 240.996,106.106 71.504,75.406 93.008,191.503 56.504,288.203 -44.797,120.4 -171.398,197.4 -297.805,196.9 v 0" /><path
         id="path18"
         style="fill:#ffffff;fill-opacity:1;fill-rule:nonzero;stroke:none"
         d="m 329.453,970.781 c 52.102,75.299 128.301,131.499 212.699,165.999 0.203,-287.6 0.106,-575.104 0,-862.6 -114.597,45.699 -211.8,135.398 -259.597,249.898 -62.301,143.801 -44.602,319.102 46.898,446.703 v 0" /></g></g></svg>